<svg xmlns="http://www.w3.org/2000/svg" height="24" viewBox="0 -960 960 960" width="24"><path fill="white" stroke="white" d="M628.462-200H184.615Q157-200 138.5-218.5 120-237 120-264.615v-430.77Q120-723 138.5-741.5 157-760 184.615-760h590.77Q803-760 821.5-741.5 840-723 840-695.385v430.77Q840-237 821.5-218.5 803-200 775.385-200h-32.923L549.846-392.615q-18.692 16.308-41.269 24.461Q486-360 460-360q-58.077 0-99.039-40.961Q320-441.923 320-500t40.961-99.039Q401.923-640 460-640t99.039 40.961Q600-558.077 600-500q0 21.615-4.692 39.462-4.692 17.846-18.692 38.077L759.077-240h16.308q9.23 0 16.923-7.692Q800-255.385 800-264.615v-430.77q0-9.23-7.692-16.923Q784.615-720 775.385-720h-590.77q-9.23 0-16.923 7.692Q160-704.615 160-695.385v430.77q0 9.23 7.692 16.923Q175.385-240 184.615-240h403.846l40.001 40ZM460-400q42 0 71-29t29-71q0-42-29-71t-71-29q-42 0-71 29t-29 71q0 42 29 71t71 29ZM160-240v-480 480Z"/></svg>